<svg width="60" height="60" viewBox="0 0 60 60" fill="none" xmlns="http://www.w3.org/2000/svg">
<path d="M29.9962 22.3035C25.7371 22.3035 22.2998 25.7409 22.2998 30C22.2998 34.2591 25.7371 37.6964 29.9962 37.6964C34.2554 37.6964 37.6927 34.2591 37.6927 30C37.6927 25.7409 34.2554 22.3035 29.9962 22.3035ZM29.9962 35.0021C27.2419 35.0021 24.9941 32.7544 24.9941 30C24.9941 27.2456 27.2419 24.9979 29.9962 24.9979C32.7506 24.9979 34.9984 27.2456 34.9984 30C34.9984 32.7544 32.7506 35.0021 29.9962 35.0021ZM38.0079 20.1946C37.0135 20.1946 36.2104 20.9977 36.2104 21.9921C36.2104 22.9865 37.0135 23.7896 38.0079 23.7896C39.0023 23.7896 39.8054 22.9903 39.8054 21.9921C39.8057 21.756 39.7594 21.5221 39.6692 21.3039C39.5789 21.0857 39.4465 20.8874 39.2796 20.7204C39.1126 20.5535 38.9143 20.4211 38.6961 20.3308C38.4779 20.2406 38.244 20.1943 38.0079 20.1946ZM44.9989 30C44.9989 27.9286 45.0176 25.876 44.9013 23.8083C44.785 21.4067 44.2371 19.2753 42.4809 17.5191C40.721 15.7591 38.5933 15.215 36.1917 15.0987C34.1203 14.9824 32.0676 15.0011 30 15.0011C27.9286 15.0011 25.876 14.9824 23.8083 15.0987C21.4067 15.215 19.2753 15.7629 17.5191 17.5191C15.7591 19.279 15.215 21.4067 15.0987 23.8083C14.9824 25.8797 15.0011 27.9324 15.0011 30C15.0011 32.0676 14.9824 34.124 15.0987 36.1917C15.215 38.5933 15.7629 40.7247 17.5191 42.4809C19.279 44.2409 21.4067 44.785 23.8083 44.9013C25.8797 45.0176 27.9324 44.9989 30 44.9989C32.0714 44.9989 34.124 45.0176 36.1917 44.9013C38.5933 44.785 40.7247 44.2371 42.4809 42.4809C44.2409 40.721 44.785 38.5933 44.9013 36.1917C45.0214 34.124 44.9989 32.0714 44.9989 30ZM41.6967 38.8485C41.4227 39.5314 41.0925 40.0418 40.5634 40.5671C40.0343 41.0962 39.5277 41.4265 38.8447 41.7004C36.8709 42.4847 32.184 42.3083 29.9962 42.3083C27.8085 42.3083 23.1179 42.4847 21.144 41.7042C20.4611 41.4302 19.9507 41.1 19.4254 40.5709C18.8962 40.0418 18.566 39.5352 18.2921 38.8522C17.5116 36.8746 17.6879 32.1877 17.6879 30C17.6879 27.8123 17.5116 23.1216 18.2921 21.1478C18.566 20.4648 18.8962 19.9545 19.4254 19.4291C19.9545 18.9038 20.4611 18.5698 21.144 18.2958C23.1179 17.5153 27.8085 17.6917 29.9962 17.6917C32.184 17.6917 36.8746 17.5153 38.8485 18.2958C39.5314 18.5698 40.0418 18.9 40.5671 19.4291C41.0962 19.9582 41.4265 20.4648 41.7004 21.1478C42.4809 23.1216 42.3046 27.8123 42.3046 30C42.3046 32.1877 42.4809 36.8746 41.6967 38.8485Z" fill="url(#paint0_linear)"/>
<circle cx="30" cy="30" r="28.5" stroke="url(#paint1_linear)" stroke-width="3"/>
<defs>
<linearGradient id="paint0_linear" x1="17" y1="15" x2="45" y2="45" gradientUnits="userSpaceOnUse">
<stop stop-color="#51ACD5"/>
<stop offset="1" stop-color="#807CE5"/>
</linearGradient>
<linearGradient id="paint1_linear" x1="7" y1="-6.785e-07" x2="60" y2="60" gradientUnits="userSpaceOnUse">
<stop stop-color="#4AB4D2"/>
<stop offset="1" stop-color="#8C6FE9"/>
</linearGradient>
</defs>
</svg>
