<svg width="109" height="110" viewBox="0 0 109 110" fill="none" xmlns="http://www.w3.org/2000/svg">
    <g clip-path="url(#clip0)" filter="url(#filter0_d)">
        <path fill-rule="evenodd" clip-rule="evenodd" d="M53.1487 36.9939C53.7622 37.3635 54.2899 37.8594 54.6969 38.4487C55.1038 39.038 55.3807 39.7071 55.5091 40.4117L55.9387 42.4085C55.9399 42.486 55.9257 42.5629 55.8968 42.6347C55.8679 42.7066 55.8249 42.7719 55.7703 42.8269C55.7158 42.8819 55.6508 42.9254 55.5792 42.9549C55.5076 42.9844 55.4308 42.9993 55.3533 42.9986H45.5531C45.4759 42.9992 45.3992 42.9846 45.3277 42.9554C45.2561 42.9263 45.191 42.8833 45.1362 42.8288C45.0813 42.7744 45.0378 42.7097 45.0081 42.6384C44.9783 42.567 44.963 42.4905 44.9631 42.4132L45.3879 40.4164C45.5166 39.7119 45.7936 39.0429 46.2005 38.4537C46.6075 37.8644 47.135 37.3684 47.7483 36.9986C47.7914 36.9681 47.8267 36.9278 47.8513 36.881C47.876 36.8343 47.8892 36.7824 47.8899 36.7295C47.8886 36.6501 47.8603 36.5735 47.8096 36.5124C47.2279 35.864 46.9067 35.0232 46.908 34.152V34.0293C46.9077 33.95 46.8789 33.8736 46.8269 33.8138C46.7749 33.754 46.7032 33.7149 46.6247 33.7036C46.0394 33.6186 45.4729 33.51 44.93 33.392C44.8968 33.3854 44.8664 33.3687 44.843 33.3442C44.8195 33.3197 44.8042 33.2886 44.799 33.2551C44.7939 33.2216 44.7992 33.1873 44.8141 33.1569C44.8291 33.1265 44.8531 33.1015 44.8828 33.0851L50.2597 30.0639C50.3184 30.0297 50.3852 30.0118 50.4532 30.012C50.5182 30.0118 50.582 30.0298 50.6373 30.0639L56.0284 33.0851C56.054 33.0988 56.0755 33.1192 56.0905 33.1442C56.1054 33.1691 56.1133 33.1977 56.1133 33.2268C56.1139 33.2648 56.101 33.3019 56.0768 33.3313C56.0525 33.3607 56.0187 33.3805 55.9812 33.3873C55.443 33.5053 54.8765 33.6139 54.2864 33.6988C54.208 33.7102 54.1363 33.7493 54.0843 33.8091C54.0323 33.8688 54.0035 33.9453 54.0032 34.0246V34.1237C54.0028 34.9954 53.6799 35.8361 53.0968 36.484C53.0475 36.5456 53.0209 36.6223 53.0213 36.7012C53.0165 36.7567 53.0257 36.8126 53.0479 36.8637C53.0702 36.9148 53.1048 36.9595 53.1487 36.9939Z" fill="white"/>
        <path d="M58.0108 32.6675L54.7802 36.1869C54.7326 36.2387 54.736 36.3194 54.7879 36.367L55.8207 37.3151C55.8726 37.3627 55.9532 37.3592 56.0008 37.3074L59.2314 33.7879C59.279 33.7361 59.2756 33.6555 59.2237 33.6079L58.1909 32.6597C58.139 32.6121 58.0584 32.6156 58.0108 32.6675Z" fill="white"/>
        <path fill-rule="evenodd" clip-rule="evenodd" d="M61.613 33.085C62.3151 33.085 63.0014 32.8768 63.5852 32.4868C64.169 32.0967 64.624 31.5423 64.8927 30.8936C65.1614 30.2449 65.2317 29.5311 65.0947 28.8425C64.9577 28.1539 64.6196 27.5213 64.1232 27.0249C63.6267 26.5284 62.9941 26.1903 62.3055 26.0533C61.6169 25.9163 60.9031 25.9866 60.2544 26.2553C59.6058 26.524 59.0513 26.979 58.6613 27.5628C58.2712 28.1466 58.063 28.833 58.063 29.5351C58.0655 30.4758 58.4403 31.3773 59.1055 32.0425C59.7707 32.7077 60.6722 33.0826 61.613 33.085Z" fill="white"/>
        <path d="M65.031 32.6586L63.9981 33.6067C63.9463 33.6543 63.9428 33.7349 63.9904 33.7868L67.221 37.3062C67.2686 37.358 67.3493 37.3615 67.4011 37.3139L68.434 36.3658C68.4859 36.3182 68.4893 36.2375 68.4417 36.1857L65.2111 32.6663C65.1635 32.6144 65.0829 32.611 65.031 32.6586Z" fill="white"/>
        <path d="M42.7112 32.6598L41.6784 33.6079C41.6265 33.6555 41.6231 33.7361 41.6707 33.788L44.9013 37.3074C44.9489 37.3593 45.0295 37.3627 45.0814 37.3151L46.1142 36.367C46.1661 36.3194 46.1695 36.2388 46.1219 36.1869L42.8913 32.6675C42.8437 32.6156 42.7631 32.6122 42.7112 32.6598Z" fill="white"/>
        <path fill-rule="evenodd" clip-rule="evenodd" d="M39.2935 33.085C39.9956 33.085 40.682 32.8768 41.2658 32.4868C41.8495 32.0967 42.3046 31.5423 42.5732 30.8936C42.8419 30.2449 42.9122 29.5311 42.7753 28.8425C42.6383 28.1539 42.3002 27.5213 41.8037 27.0249C41.3072 26.5284 40.6747 26.1903 39.9861 26.0533C39.2974 25.9163 38.5837 25.9866 37.935 26.2553C37.2863 26.524 36.7319 26.979 36.3418 27.5628C35.9517 28.1466 35.7435 28.833 35.7435 29.5351C35.746 30.4758 36.1208 31.3773 36.786 32.0425C37.4513 32.7077 38.3528 33.0826 39.2935 33.085Z" fill="white"/>
        <path d="M35.6902 32.6677L32.4596 36.1871C32.412 36.239 32.4155 36.3196 32.4673 36.3672L33.5002 37.3153C33.552 37.3629 33.6327 37.3595 33.6803 37.3076L36.9109 33.7882C36.9585 33.7363 36.955 33.6557 36.9032 33.6081L35.8703 32.66C35.8184 32.6124 35.7378 32.6158 35.6902 32.6677Z" fill="white"/>
        <path fill-rule="evenodd" clip-rule="evenodd" d="M72.3998 51.3682C72.6354 51.0737 72.9717 50.8769 73.3439 50.8159C73.7142 50.879 74.0494 51.0734 74.2881 51.3635C74.5891 51.5942 74.7888 51.9327 74.8451 52.3077C74.785 52.6802 74.588 53.0168 74.2928 53.2518C72.5178 55.0174 70.757 56.7876 69.0103 58.5768C68.7754 58.872 68.4387 59.0689 68.0662 59.1291C67.7682 59.165 67.4668 59.1006 67.2095 58.9461C66.9522 58.7915 66.7537 58.5557 66.6454 58.2758C66.5371 57.9959 66.5252 57.6878 66.6115 57.4004C66.6978 57.1129 66.8775 56.8624 67.122 56.6885C68.8781 54.9135 70.6248 53.1385 72.3856 51.373L72.3998 51.3682ZM37.5941 64.4352C38.0827 64.4242 38.5674 64.5238 39.0121 64.7265C39.4568 64.9292 39.8499 65.2299 40.1621 65.6059C40.8474 66.4074 41.2078 67.4363 41.1723 68.4902V71.1905C41.1847 71.3681 41.1847 71.5463 41.1723 71.7239C41.1517 71.8606 41.1087 71.993 41.0449 72.1157C40.8985 72.3895 40.502 72.5264 39.8458 72.5264C39.1188 72.5264 38.6987 72.3376 38.5854 71.9599C38.5145 71.7051 38.4842 71.4406 38.4957 71.1763V68.4572C38.5063 68.2773 38.4795 68.0971 38.4169 67.9281C38.3544 67.7591 38.2574 67.6049 38.1322 67.4753C37.8766 67.2371 37.5372 67.1099 37.1881 67.1212C37.0081 67.1137 36.8284 67.1425 36.6598 67.2057C36.4911 67.269 36.3369 67.3655 36.2062 67.4894C36.0804 67.6161 35.9823 67.7676 35.9181 67.9341C35.8539 68.1007 35.825 68.2788 35.8332 68.4572V71.1716C35.8353 71.3497 35.8274 71.5278 35.8096 71.705C35.7836 71.843 35.7341 71.9756 35.6633 72.0968C35.5311 72.3706 35.1346 72.5076 34.4784 72.5076C33.8222 72.5076 33.4398 72.3706 33.2982 72.0968C33.234 71.9673 33.1895 71.8288 33.166 71.6861C33.1275 71.5117 33.0991 71.3352 33.0811 71.1574V65.7239C33.0791 65.5521 33.087 65.3803 33.1047 65.2093C33.1277 65.0705 33.1774 64.9375 33.251 64.8175C33.3974 64.5626 33.7892 64.4352 34.4359 64.4352C35.0826 64.4352 35.4414 64.5532 35.5878 64.7845C35.6924 64.9786 35.7444 65.1966 35.7388 65.4171C35.8174 65.3027 35.9111 65.1995 36.0173 65.1102C36.143 64.9882 36.2806 64.8791 36.428 64.7845C36.7681 64.5548 37.1695 64.4331 37.5799 64.4352H37.5941ZM65.1346 65.2943C65.196 64.7184 65.6067 64.4352 66.3478 64.4352C66.648 64.423 66.9483 64.4532 67.2401 64.5248C67.3262 64.5475 67.4067 64.5877 67.4766 64.643C67.5464 64.6982 67.6041 64.7673 67.646 64.8459C67.7135 64.9745 67.7598 65.1132 67.7829 65.2566C67.7953 65.4326 67.7953 65.6092 67.7829 65.7853V71.1574C67.7955 71.3334 67.7955 71.5101 67.7829 71.6861C67.7616 71.8287 67.7186 71.9672 67.6555 72.0968C67.5091 72.3612 67.1834 72.4934 66.6028 72.4934C66.2144 72.5255 65.8248 72.4469 65.4792 72.2668C65.3843 72.1958 65.3061 72.1049 65.2498 72.0006C65.1936 71.8962 65.1607 71.7809 65.1535 71.6625C64.9311 71.9443 64.642 72.1661 64.3123 72.3079C63.9826 72.4496 63.6227 72.5069 63.2652 72.4745C62.7919 72.459 62.3272 72.3427 61.9023 72.1336C61.4774 71.9244 61.102 71.627 60.801 71.2613C60.0697 70.5073 59.6606 69.4982 59.6606 68.4478C59.6606 67.3973 60.0697 66.3882 60.801 65.6342C61.1115 65.2745 61.4934 64.9834 61.9226 64.7794C62.3517 64.5754 62.8186 64.463 63.2936 64.4493C63.6175 64.4464 63.9386 64.509 64.2377 64.6334C64.4554 64.7141 64.658 64.8305 64.8372 64.978C64.9393 65.0736 65.031 65.1796 65.111 65.2943H65.1346ZM62.3494 68.4902C62.3508 68.6621 62.3871 68.8319 62.4561 68.9893C62.5251 69.1467 62.6253 69.2885 62.7507 69.4061C62.8726 69.5338 63.0191 69.6355 63.1814 69.7053C63.3436 69.7751 63.5182 69.8114 63.6948 69.812C63.873 69.8164 64.05 69.7815 64.2132 69.7097C64.3764 69.6379 64.5218 69.531 64.639 69.3966C64.88 69.1557 65.0187 68.831 65.0261 68.4902C65.0266 68.1421 64.8988 67.806 64.6673 67.5461C64.5523 67.4081 64.4077 67.2978 64.2443 67.2235C64.0808 67.1491 63.9027 67.1125 63.7231 67.1165C63.5377 67.1095 63.3531 67.1446 63.183 67.2189C63.013 67.2933 62.862 67.4052 62.7412 67.5461C62.5028 67.8032 62.3682 68.1396 62.3636 68.4902H62.3494ZM58.5351 63.2267C58.287 63.2906 58.0311 63.3192 57.7751 63.3116C57.5217 63.3205 57.2686 63.2903 57.0245 63.2219C56.9414 63.1978 56.864 63.1575 56.7968 63.1032C56.7295 63.0489 56.6737 62.9817 56.6326 62.9056C56.5647 62.7806 56.5184 62.6449 56.4957 62.5044C56.4834 62.3284 56.4834 62.1517 56.4957 61.9757C56.483 61.8028 56.483 61.6292 56.4957 61.4564C56.5171 61.3213 56.5602 61.1906 56.6232 61.0693C56.7695 60.8049 57.1614 60.6728 57.8081 60.6728C58.4548 60.6728 58.8042 60.8049 58.9599 61.0693C59.0246 61.1832 59.0678 61.308 59.0874 61.4375C59.0998 61.6072 59.0998 61.7776 59.0874 61.9473V62.037C59.0999 62.2052 59.0999 62.374 59.0874 62.5422C59.0648 62.6796 59.0151 62.8112 58.9411 62.9292C58.8503 63.078 58.7043 63.1849 58.5351 63.2267ZM57.0481 64.4776C57.2955 64.4097 57.5517 64.3795 57.8081 64.3879C58.0661 64.3776 58.3242 64.4079 58.5729 64.4776C58.6559 64.5017 58.7333 64.5421 58.8006 64.5964C58.8678 64.6507 58.9236 64.7178 58.9647 64.7939C59.0332 64.9187 59.0796 65.0545 59.1016 65.1952C59.1139 65.3712 59.1139 65.5479 59.1016 65.7239V72.0496C59.123 72.5905 59.0225 73.1293 58.8076 73.6261C58.5927 74.1229 58.2688 74.565 57.86 74.9198C57.1135 75.6045 56.1396 75.988 55.1267 75.9961C54.9518 75.9984 54.7768 75.9905 54.6027 75.9725C54.4689 75.9499 54.3397 75.9052 54.2204 75.8404C53.956 75.6987 53.8191 75.3258 53.8191 74.7216C53.8191 74.1173 53.9324 73.7397 54.1496 73.5839C54.4169 73.4188 54.7279 73.3382 55.0418 73.3526C55.3966 73.3597 55.7443 73.2521 56.0331 73.0457C56.1888 72.9101 56.3093 72.7388 56.3841 72.5464C56.4589 72.3539 56.4859 72.1462 56.4627 71.9411V65.6153C56.4444 65.3429 56.4947 65.0702 56.609 64.8223C56.703 64.6568 56.8567 64.5335 57.0386 64.4776H57.0481ZM51.4446 64.4352C51.0344 64.4339 50.6332 64.5556 50.2927 64.7845C50.1453 64.8791 50.0077 64.9882 49.882 65.1102C49.7758 65.1995 49.6821 65.3027 49.6035 65.4171C49.6091 65.1966 49.5571 64.9786 49.4525 64.7845C49.3061 64.5532 48.9237 64.4352 48.3006 64.4352C47.6775 64.4352 47.2621 64.5626 47.1157 64.8175C47.0441 64.9384 46.9945 65.0711 46.9694 65.2093C46.9517 65.3803 46.9438 65.5521 46.9458 65.7239V71.1574C46.9435 71.334 46.9514 71.5105 46.9694 71.6861C46.9951 71.8283 47.0395 71.9664 47.1015 72.0968C47.2432 72.3706 47.6397 72.5076 48.2817 72.5076C48.9237 72.5076 49.3344 72.3706 49.4666 72.0968C49.5375 71.9756 49.587 71.843 49.613 71.705C49.6229 71.5274 49.6229 71.3493 49.613 71.1716V68.4572C49.6047 68.2788 49.6336 68.1007 49.6978 67.9341C49.762 67.7676 49.8601 67.6161 49.9859 67.4894C50.1166 67.3655 50.2708 67.269 50.4395 67.2057C50.6082 67.1425 50.7878 67.1137 50.9678 67.1212C51.1446 67.1124 51.3214 67.1392 51.4876 67.2001C51.6538 67.2609 51.8062 67.3545 51.9355 67.4753C52.0607 67.6049 52.1577 67.7591 52.2203 67.9281C52.2828 68.0971 52.3097 68.2773 52.299 68.4572V71.1574C52.3028 71.4242 52.349 71.6888 52.4359 71.9411C52.5492 72.3187 52.9694 72.5076 53.6964 72.5076C54.3525 72.5076 54.7491 72.3706 54.8954 72.0968C54.9592 71.9742 55.0023 71.8418 55.0229 71.705C55.0352 71.5274 55.0352 71.3492 55.0229 71.1716V68.4902C55.0509 67.4415 54.6874 66.42 54.0032 65.6248C53.692 65.25 53.3004 64.9501 52.8575 64.7475C52.4145 64.5448 51.9316 64.4445 51.4446 64.454V64.4352ZM42.5933 65.7853C42.5912 65.6087 42.5991 65.4322 42.6169 65.2566C42.6382 65.114 42.6812 64.9755 42.7443 64.8459C42.8907 64.5815 43.2872 64.4493 43.9434 64.4493C44.3106 64.4141 44.6788 64.5058 44.9867 64.709C45.079 64.7917 45.1518 64.8939 45.2 65.0082C45.2481 65.1225 45.2704 65.246 45.2652 65.3699C45.2652 65.4737 45.2652 65.62 45.2652 65.8136V71.1905C45.2697 71.3671 45.2618 71.5437 45.2416 71.7192C45.2196 71.8627 45.1699 72.0006 45.0952 72.1252C44.9631 72.3895 44.5713 72.5264 43.9151 72.5264C43.2589 72.5264 42.8765 72.3848 42.7302 72.111C42.6679 71.9844 42.625 71.8491 42.6027 71.7098C42.5846 71.531 42.5767 71.3513 42.5791 71.1716V65.7853H42.5933ZM45.1189 62.9528C45.0767 63.0307 45.0188 63.099 44.9489 63.1535C44.8791 63.2079 44.7987 63.2473 44.7129 63.2691C44.2028 63.3949 43.6698 63.3949 43.1598 63.2691C43.0736 63.2465 42.9931 63.2063 42.9233 63.151C42.8534 63.0958 42.7957 63.0267 42.7538 62.9481C42.6864 62.8211 42.6401 62.684 42.6169 62.5422C42.5854 62.1888 42.5854 61.8333 42.6169 61.48C42.6375 61.3433 42.6806 61.2109 42.7443 61.0882C42.8907 60.8144 43.2872 60.6728 43.9434 60.6728C44.5996 60.6728 44.9772 60.8144 45.1094 61.0882C45.1826 61.2134 45.2322 61.351 45.2558 61.4942C45.2872 61.8475 45.2872 62.203 45.2558 62.5563C45.2337 62.6955 45.1873 62.8297 45.1189 62.9528ZM31.0842 53.6531L30.0834 53.5917V55.7113C30.0664 55.9199 30.1124 56.1288 30.2156 56.3108C30.2744 56.3763 30.3477 56.4271 30.4297 56.4591C30.5117 56.4911 30.6001 56.5034 30.6877 56.4949C30.8716 56.4828 31.0561 56.4828 31.24 56.4949C31.3835 56.5144 31.5215 56.5625 31.646 56.6366C31.882 56.7735 32 57.1086 32 57.6657C32 58.3124 31.8584 58.7089 31.5704 58.8506C31.4423 58.9133 31.3054 58.9562 31.1645 58.978C30.9932 58.9902 30.8212 58.9902 30.6499 58.978C29.7811 59.0389 28.9195 58.7841 28.2235 58.2605C27.6853 57.8104 27.4162 57.0111 27.4162 55.8624V53.5917C27.2084 53.6228 26.9985 53.6385 26.7884 53.6389C26.6808 53.6419 26.574 53.6205 26.4759 53.5764C26.3778 53.5323 26.291 53.4665 26.2219 53.384C26.0469 53.1194 25.9686 52.8027 26 52.4871C25.9886 52.1799 26.014 51.8724 26.0755 51.5712C26.1067 51.4176 26.1822 51.2765 26.2927 51.1653C26.4676 51.0292 26.6849 50.959 26.9064 50.967L27.4162 51.0236V49.4469C27.4061 49.2724 27.4061 49.0974 27.4162 48.9229C27.4384 48.7912 27.4883 48.6657 27.5626 48.5547C27.6947 48.2998 28.0913 48.1723 28.7427 48.1723C29.3942 48.1723 29.8568 48.3612 29.989 48.7388C30.0502 48.9953 30.0756 49.259 30.0645 49.5225V51.0236C30.5366 50.9812 30.8576 50.9623 31.0842 50.9623C31.2587 50.95 31.4338 50.95 31.6082 50.9623C31.7517 50.9842 31.8896 51.0339 32.0142 51.1086C32.2833 51.2408 32.4154 51.6326 32.4154 52.2888C32.4154 52.945 32.2785 53.3273 32 53.469C31.8732 53.5358 31.7359 53.5805 31.594 53.6011C31.4179 53.611 31.2414 53.611 31.0653 53.6011L31.0842 53.6531ZM62.9489 52.2841C62.9391 52.108 62.9391 51.9314 62.9489 51.7553C62.9747 51.6147 63.0192 51.4782 63.0811 51.3494C63.2227 51.085 63.624 50.9481 64.2802 50.9481C64.6479 50.9147 65.016 51.008 65.3235 51.2125C65.4149 51.2957 65.4869 51.3981 65.5342 51.5123C65.5815 51.6266 65.6031 51.7498 65.5973 51.8734C65.6066 52.0211 65.6066 52.1693 65.5973 52.3171V57.6893C65.6072 57.8669 65.6072 58.045 65.5973 58.2227C65.5723 58.3655 65.5228 58.5028 65.4509 58.6287C65.3187 58.893 64.9222 59.0252 64.266 59.0252C63.6098 59.0252 63.2275 58.8883 63.0858 58.6145C63.0247 58.487 62.9803 58.3522 62.9537 58.2133C62.9434 58.034 62.9434 57.8543 62.9537 57.6751V52.2841H62.9489ZM65.4745 49.4516C65.4323 49.5295 65.3745 49.5978 65.3046 49.6522C65.2347 49.7067 65.1544 49.7461 65.0685 49.7679C64.5593 49.8876 64.0293 49.8876 63.5201 49.7679C63.4334 49.7453 63.3523 49.7045 63.2824 49.6484C63.2124 49.5923 63.1551 49.522 63.1142 49.4422C63.0449 49.3156 62.997 49.1784 62.9725 49.0362C62.9411 48.6844 62.9411 48.3306 62.9725 47.9788C62.9965 47.8422 63.0411 47.7101 63.1047 47.587C63.2463 47.3084 63.6476 47.1715 64.3038 47.1715C64.96 47.1715 65.3376 47.3084 65.4698 47.587C65.5424 47.7125 65.5919 47.85 65.6161 47.9929C65.6261 48.169 65.6261 48.3456 65.6161 48.5217C65.6261 48.6993 65.6261 48.8774 65.6161 49.0551C65.5936 49.1948 65.5456 49.3292 65.4745 49.4516ZM60.5792 50.9623C61.2873 50.9623 61.698 51.1605 61.8207 51.5476C61.8901 51.798 61.9219 52.0574 61.9151 52.3171C61.9237 52.5742 61.8902 52.8309 61.816 53.0771C61.7656 53.2476 61.6526 53.3926 61.4997 53.4831C61.2061 53.625 60.8809 53.6884 60.5555 53.6672L59.5736 53.6059V57.7223C59.5907 58.0137 59.544 58.3053 59.4367 58.5768C59.3905 58.6705 59.3243 58.7529 59.2427 58.8181C59.1611 58.8834 59.0662 58.9299 58.9647 58.9544C58.7126 59.0235 58.4518 59.0553 58.1905 59.0488C57.933 59.0583 57.6759 59.0232 57.4304 58.945C57.2586 58.8948 57.113 58.7796 57.0245 58.624C56.9504 58.4991 56.9008 58.3614 56.8781 58.218C56.8683 58.0387 56.8683 57.8591 56.8781 57.6798V53.6059H56.3258C56.1221 53.6072 55.9233 53.5426 55.7593 53.4218C55.5236 53.0994 55.419 52.6995 55.4666 52.3029C55.4666 51.4627 55.7688 51.0425 56.373 51.0425H56.8781V50.2306C56.8808 49.4354 57.1824 48.6704 57.7231 48.0874C58.0354 47.7601 58.416 47.5057 58.8379 47.3425C59.2598 47.1793 59.7125 47.1113 60.1637 47.1432C60.3398 47.1338 60.5163 47.1338 60.6924 47.1432C60.8361 47.1705 60.9746 47.2199 61.1031 47.2896C61.3769 47.4265 61.5139 47.8183 61.5139 48.4745C61.5471 48.846 61.4557 49.218 61.2542 49.5319C61.1658 49.6208 61.0606 49.6912 60.9447 49.7391C60.8288 49.7869 60.7045 49.8111 60.5792 49.8104H60.1496C59.7719 49.8104 59.5831 49.9379 59.5831 50.1928V51.0236L60.5792 50.9292V50.9623ZM53.5406 50.9623C54.244 50.9623 54.6594 51.1605 54.7821 51.5476C54.8515 51.798 54.8833 52.0574 54.8765 52.3171C54.892 52.5685 54.8649 52.8207 54.7963 53.063C54.7463 53.2322 54.6353 53.3769 54.4847 53.469C54.1905 53.6088 53.8658 53.6721 53.5406 53.6531L52.5587 53.5917V57.7082C52.5714 58.0066 52.5148 58.3039 52.3935 58.5768C52.3508 58.6678 52.2891 58.7486 52.2125 58.8137C52.136 58.8788 52.0464 58.9268 51.9497 58.9544C51.6976 59.0235 51.4368 59.0553 51.1755 59.0488C50.9181 59.0587 50.6609 59.0236 50.4155 58.945C50.2432 58.8932 50.0966 58.7787 50.0048 58.624C49.9321 58.4989 49.884 58.3611 49.8632 58.218C49.851 58.0388 49.851 57.859 49.8632 57.6798V53.6059H49.2872C49.0819 53.6083 48.8813 53.5436 48.716 53.4218C48.4824 53.0983 48.378 52.6993 48.4233 52.3029C48.4233 51.4501 48.7255 51.0236 49.3297 51.0236H49.8396V50.2306C49.8399 49.435 50.1419 48.6691 50.6846 48.0874C50.9964 47.7595 51.377 47.5049 51.799 47.3416C52.221 47.1784 52.6739 47.1106 53.1252 47.1432C53.3013 47.1338 53.4778 47.1338 53.6539 47.1432C53.7963 47.1696 53.9334 47.219 54.0599 47.2896C54.3384 47.4265 54.4753 47.8183 54.4753 48.4745C54.5085 48.846 54.4171 49.218 54.2156 49.5319C54.1273 49.6208 54.022 49.6912 53.9061 49.7391C53.7902 49.7869 53.666 49.8111 53.5406 49.8104H53.1063C52.7286 49.8104 52.5398 49.9379 52.5398 50.1928V51.0236L53.5406 50.9292V50.9623ZM45.0433 51.8073C45.1047 51.2361 45.5154 50.9481 46.2565 50.9481C46.5569 50.9373 46.8573 50.9691 47.1488 51.0425C47.2349 51.0652 47.3154 51.1054 47.3853 51.1606C47.4551 51.2159 47.5128 51.285 47.5547 51.3635C47.6221 51.4905 47.6684 51.6276 47.6916 51.7695C47.7089 51.9405 47.7167 52.1122 47.7152 52.2841V57.6609C47.7173 57.8375 47.7095 58.014 47.6916 58.1897C47.671 58.3315 47.6263 58.4688 47.5595 58.5956C47.4178 58.8647 47.0874 58.9969 46.5115 58.9969C46.1249 59.0338 45.7357 58.9619 45.3879 58.7892C45.2925 58.7172 45.2136 58.6256 45.1566 58.5206C45.0996 58.4155 45.0658 58.2995 45.0575 58.1802C44.8365 58.4638 44.5477 58.6872 44.2177 58.83C43.8878 58.9727 43.5272 59.0301 43.1692 58.9969C42.696 58.9805 42.2317 58.8638 41.8069 58.6547C41.3821 58.4456 41.0066 58.1487 40.705 57.7837C39.9736 57.0297 39.5646 56.0206 39.5646 54.9701C39.5646 53.9197 39.9736 52.9106 40.705 52.1566C41.0156 51.7905 41.3997 51.4937 41.8323 51.2855C42.2649 51.0774 42.7365 50.9624 43.2164 50.9481C43.5406 50.9467 43.8618 51.0109 44.1606 51.1369C44.514 51.2573 44.8199 51.4871 45.0339 51.7931L45.0433 51.8073ZM42.2439 54.989C42.2455 55.1602 42.2818 55.3292 42.3508 55.4859C42.4198 55.6425 42.52 55.7835 42.6452 55.9001C42.7688 56.0325 42.9188 56.1375 43.0855 56.2082C43.2522 56.279 43.4319 56.3139 43.6129 56.3108C43.7909 56.3136 43.9674 56.2779 44.1304 56.2062C44.2933 56.1345 44.4389 56.0285 44.5571 55.8954C44.794 55.6491 44.9274 55.3213 44.93 54.9796C44.9305 54.6315 44.8028 54.2954 44.5713 54.0354C44.4543 53.8934 44.3061 53.7803 44.1382 53.705C43.9704 53.6296 43.7874 53.5941 43.6035 53.6011C43.4177 53.5951 43.233 53.631 43.063 53.7062C42.893 53.7814 42.7421 53.8939 42.6216 54.0354C42.3804 54.2908 42.2454 54.6283 42.2439 54.9796V54.989ZM38.9395 51.0284C38.7633 50.972 38.5835 50.9279 38.4013 50.8962C38.2026 50.8695 38.0022 50.8568 37.8018 50.8584C37.5059 50.8739 37.2187 50.9631 36.9662 51.1181C36.7407 51.2278 36.5311 51.3675 36.3431 51.5335C36.2636 51.6152 36.1895 51.7019 36.1212 51.7931C36.1074 51.6069 36.0347 51.43 35.9135 51.288C35.7577 51.052 35.3753 50.9339 34.7616 50.9339C34.1479 50.9339 33.7089 51.0708 33.5626 51.3494C33.4981 51.4718 33.455 51.6043 33.4351 51.7412C33.4228 51.9172 33.4228 52.0939 33.4351 52.2699V58.1047C33.4362 58.3524 33.5345 58.5897 33.7089 58.7656C34.0248 58.9665 34.3981 59.0577 34.7711 59.0252C35.4131 59.0252 35.8144 58.893 35.9701 58.6287C36.0408 58.5027 36.0887 58.3653 36.1118 58.2227C36.132 58.0457 36.1399 57.8674 36.1354 57.6893V54.465C36.1366 54.3275 36.1702 54.1922 36.2333 54.07C36.2965 53.9479 36.3874 53.8422 36.4989 53.7616C36.7144 53.576 36.9886 53.4724 37.273 53.469C37.5013 53.46 37.7287 53.5019 37.9387 53.5917C38.1051 53.6718 38.2874 53.7137 38.4721 53.7144C38.6554 53.7126 38.8338 53.6558 38.9845 53.5515C39.1351 53.4471 39.251 53.3 39.3171 53.1291C39.4947 52.799 39.5933 52.4321 39.6051 52.0575C39.6275 51.8036 39.5608 51.5499 39.4162 51.3399C39.2901 51.1951 39.1269 51.0874 38.9442 51.0284H38.9395ZM66.7397 52.8505C66.9686 53.1227 67.2214 53.3739 67.495 53.6011C67.6097 53.6854 67.7372 53.7508 67.8726 53.7947C68.17 53.8891 68.543 53.705 69.0009 53.2518C69.4588 52.7986 69.6476 52.4162 69.5532 52.133C69.5168 51.992 69.4544 51.8592 69.3691 51.7412C69.1598 51.498 68.9343 51.2693 68.694 51.0567C68.6081 50.9638 68.5024 50.8914 68.3848 50.8448C68.2671 50.7982 68.1405 50.7787 68.0143 50.7876C67.6446 50.8555 67.3105 51.051 67.0701 51.3399C66.598 51.812 66.4092 52.1802 66.5036 52.4682C66.5448 52.6062 66.6103 52.7357 66.6972 52.8505H66.7397ZM71.9985 58.1047C72.2261 58.3795 72.479 58.6324 72.7538 58.86C72.8666 58.9436 72.9927 59.0074 73.1268 59.0488C73.4242 59.1432 73.8018 58.9639 74.255 58.5059C74.7082 58.048 74.9065 57.6704 74.8121 57.3871C74.7758 57.2476 74.7133 57.1163 74.628 57C74.4186 56.7569 74.1931 56.5282 73.9529 56.3155C73.8679 56.2263 73.7653 56.1559 73.6514 56.1087C73.5376 56.0615 73.4152 56.0387 73.292 56.0417C72.9227 56.1135 72.5893 56.3102 72.3479 56.5988C71.8758 57.0709 71.6917 57.4391 71.7861 57.727C71.8318 57.8655 71.904 57.9937 71.9985 58.1047Z" fill="white"/>
        <path fill-rule="evenodd" clip-rule="evenodd" d="M49.443 33.9348C49.3745 33.9301 49.3103 33.8998 49.2631 33.85C49.2159 33.8001 49.1891 33.7344 49.1881 33.6658L49.3108 32.613L48.428 33.7554C48.4039 33.7847 48.3736 33.8083 48.3394 33.8246C48.3051 33.841 48.2677 33.8496 48.2298 33.8499H47.9748C47.9459 33.843 47.9158 33.8423 47.8866 33.8478C47.8574 33.8533 47.8296 33.8649 47.8051 33.8818C47.7806 33.8987 47.76 33.9206 47.7445 33.946C47.729 33.9714 47.719 33.9997 47.7152 34.0292V34.2322C47.7152 36.0686 49.2919 34.8601 50.4391 34.8601C51.5862 34.8601 53.1629 35.9506 53.1629 34.2322V34.0292C53.1605 33.9746 53.137 33.9229 53.0974 33.8851C53.0579 33.8473 53.0052 33.8262 52.9505 33.8263C52.1432 33.8971 51.3077 33.9396 50.4485 33.9396C50.1086 33.9396 49.7687 33.9396 49.4383 33.9396L49.443 33.9348Z" fill="#1A1A18"/>
    </g>
    <defs>
        <filter id="filter0_d" x="0" y="0" width="108.836" height="110" filterUnits="userSpaceOnUse" color-interpolation-filters="sRGB">
            <feFlood flood-opacity="0" result="BackgroundImageFix"/>
            <feColorMatrix in="SourceAlpha" type="matrix" values="0 0 0 0 0 0 0 0 0 0 0 0 0 0 0 0 0 0 127 0"/>
            <feOffset dx="4" dy="4"/>
            <feGaussianBlur stdDeviation="15"/>
            <feColorMatrix type="matrix" values="0 0 0 0 0.572549 0 0 0 0 0.847059 0 0 0 0 0.854902 0 0 0 0.5 0"/>
            <feBlend mode="normal" in2="BackgroundImageFix" result="effect1_dropShadow"/>
            <feBlend mode="normal" in="SourceGraphic" in2="effect1_dropShadow" result="shape"/>
        </filter>
        <clipPath id="clip0">
            <rect width="48.8357" height="50" fill="white" transform="translate(26 26)"/>
        </clipPath>
    </defs>
</svg>
